<svg width="181" height="41" viewBox="0 0 181 41" fill="none" xmlns="http://www.w3.org/2000/svg">
<path d="M37.3691 20.9648L42.9355 22.9277V25.6621L34.5273 22.0977V19.793L42.9355 16.2285V18.9629L37.3691 20.9648ZM53.3555 24.6465H59.5762V27H50.4258V12.7812H53.3555V24.6465ZM65.9434 27.1953C64.3939 27.1953 63.1309 26.7201 62.1543 25.7695C61.1842 24.819 60.6992 23.5527 60.6992 21.9707V21.6973C60.6992 20.6361 60.9043 19.6888 61.3145 18.8555C61.7246 18.0156 62.304 17.3711 63.0527 16.9219C63.8079 16.4661 64.6673 16.2383 65.6309 16.2383C67.0762 16.2383 68.2122 16.694 69.0391 17.6055C69.8724 18.5169 70.2891 19.8092 70.2891 21.4824V22.6348H63.5605C63.6517 23.3249 63.9251 23.8783 64.3809 24.2949C64.8431 24.7116 65.4258 24.9199 66.1289 24.9199C67.2161 24.9199 68.0658 24.526 68.6777 23.7383L70.0645 25.291C69.6413 25.89 69.0684 26.3587 68.3457 26.6973C67.623 27.0293 66.8223 27.1953 65.9434 27.1953ZM65.6211 18.5234C65.0612 18.5234 64.6055 18.7122 64.2539 19.0898C63.9089 19.4674 63.6875 20.0078 63.5898 20.7109H67.5156V20.4863C67.5026 19.8613 67.3333 19.3796 67.0078 19.041C66.6823 18.696 66.2201 18.5234 65.6211 18.5234ZM78.0234 27C77.8932 26.7461 77.7988 26.4303 77.7402 26.0527C77.0566 26.8145 76.168 27.1953 75.0742 27.1953C74.0391 27.1953 73.1797 26.8958 72.4961 26.2969C71.819 25.6979 71.4805 24.9427 71.4805 24.0312C71.4805 22.9115 71.8939 22.0521 72.7207 21.4531C73.554 20.8542 74.7552 20.5514 76.3242 20.5449H77.623V19.9395C77.623 19.4512 77.4961 19.0605 77.2422 18.7676C76.9948 18.4746 76.6009 18.3281 76.0605 18.3281C75.5853 18.3281 75.2109 18.4421 74.9375 18.6699C74.6706 18.8978 74.5371 19.2103 74.5371 19.6074H71.7148C71.7148 18.9954 71.9036 18.429 72.2812 17.9082C72.6589 17.3874 73.1927 16.9805 73.8828 16.6875C74.5729 16.388 75.3477 16.2383 76.207 16.2383C77.5091 16.2383 78.541 16.5671 79.3027 17.2246C80.071 17.8757 80.4551 18.7936 80.4551 19.9785V24.5586C80.4616 25.5612 80.6016 26.3197 80.875 26.834V27H78.0234ZM75.6895 25.0371C76.1061 25.0371 76.4902 24.946 76.8418 24.7637C77.1934 24.5749 77.4538 24.3242 77.623 24.0117V22.1953H76.5684C75.1556 22.1953 74.4036 22.6836 74.3125 23.6602L74.3027 23.8262C74.3027 24.1777 74.4264 24.4674 74.6738 24.6953C74.9212 24.9232 75.2598 25.0371 75.6895 25.0371ZM85.2207 16.4336L85.3086 17.6543C86.0638 16.7103 87.0762 16.2383 88.3457 16.2383C89.4655 16.2383 90.2988 16.5671 90.8457 17.2246C91.3926 17.8822 91.6725 18.8652 91.6855 20.1738V27H88.8633V20.2422C88.8633 19.6432 88.7331 19.2103 88.4727 18.9434C88.2122 18.6699 87.7793 18.5332 87.1738 18.5332C86.3796 18.5332 85.7839 18.8717 85.3867 19.5488V27H82.5645V16.4336H85.2207ZM93.3945 21.6387C93.3945 19.9915 93.7624 18.6797 94.498 17.7031C95.2402 16.7266 96.2526 16.2383 97.5352 16.2383C98.5638 16.2383 99.4134 16.6224 100.084 17.3906V12H102.916V27H100.367L100.23 25.877C99.5273 26.7559 98.6224 27.1953 97.5156 27.1953C96.2721 27.1953 95.2728 26.707 94.5176 25.7305C93.7689 24.7474 93.3945 23.3835 93.3945 21.6387ZM96.2168 21.8438C96.2168 22.8333 96.3893 23.5918 96.7344 24.1191C97.0794 24.6465 97.5807 24.9102 98.2383 24.9102C99.1107 24.9102 99.7259 24.5423 100.084 23.8066V19.6367C99.7324 18.901 99.1237 18.5332 98.2578 18.5332C96.8971 18.5332 96.2168 19.6367 96.2168 21.8438ZM111.041 19.0801C110.657 19.028 110.318 19.002 110.025 19.002C108.958 19.002 108.258 19.3633 107.926 20.0859V27H105.104V16.4336H107.77L107.848 17.6934C108.414 16.7233 109.199 16.2383 110.201 16.2383C110.514 16.2383 110.807 16.2806 111.08 16.3652L111.041 19.0801ZM111.617 21.6191C111.617 20.571 111.819 19.6367 112.223 18.8164C112.626 17.9961 113.206 17.3613 113.961 16.9121C114.723 16.4629 115.605 16.2383 116.607 16.2383C118.033 16.2383 119.195 16.6745 120.094 17.5469C120.999 18.4193 121.503 19.6042 121.607 21.1016L121.627 21.8242C121.627 23.4453 121.174 24.7474 120.27 25.7305C119.365 26.707 118.15 27.1953 116.627 27.1953C115.104 27.1953 113.886 26.707 112.975 25.7305C112.07 24.7539 111.617 23.4258 111.617 21.7461V21.6191ZM114.439 21.8242C114.439 22.8268 114.628 23.5951 115.006 24.1289C115.383 24.6562 115.924 24.9199 116.627 24.9199C117.311 24.9199 117.844 24.6595 118.229 24.1387C118.613 23.6113 118.805 22.7715 118.805 21.6191C118.805 20.6361 118.613 19.8743 118.229 19.334C117.844 18.7936 117.304 18.5234 116.607 18.5234C115.917 18.5234 115.383 18.7936 115.006 19.334C114.628 19.8678 114.439 20.6979 114.439 21.8242ZM135.904 23.2695C135.904 22.7161 135.709 22.293 135.318 22C134.928 21.7005 134.225 21.388 133.209 21.0625C132.193 20.7305 131.389 20.4049 130.797 20.0859C129.182 19.2135 128.375 18.0384 128.375 16.5605C128.375 15.7923 128.59 15.1087 129.02 14.5098C129.456 13.9043 130.077 13.4323 130.885 13.0938C131.699 12.7552 132.61 12.5859 133.619 12.5859C134.635 12.5859 135.54 12.7715 136.334 13.1426C137.128 13.5072 137.743 14.0247 138.18 14.6953C138.622 15.3659 138.844 16.1276 138.844 16.9805H135.914C135.914 16.3294 135.709 15.8249 135.299 15.4668C134.889 15.1022 134.312 14.9199 133.57 14.9199C132.854 14.9199 132.298 15.0729 131.9 15.3789C131.503 15.6784 131.305 16.0755 131.305 16.5703C131.305 17.0326 131.536 17.4199 131.998 17.7324C132.467 18.0449 133.154 18.3379 134.059 18.6113C135.725 19.1126 136.939 19.7344 137.701 20.4766C138.463 21.2188 138.844 22.1432 138.844 23.25C138.844 24.4805 138.378 25.4473 137.447 26.1504C136.516 26.847 135.263 27.1953 133.688 27.1953C132.594 27.1953 131.598 26.9967 130.699 26.5996C129.801 26.196 129.114 25.6458 128.639 24.9492C128.17 24.2526 127.936 23.4453 127.936 22.5273H130.875C130.875 24.0964 131.812 24.8809 133.688 24.8809C134.384 24.8809 134.928 24.7409 135.318 24.4609C135.709 24.1745 135.904 23.7773 135.904 23.2695ZM143.629 27H140.797V16.4336H143.629V27ZM140.631 13.6992C140.631 13.276 140.771 12.9277 141.051 12.6543C141.337 12.3809 141.725 12.2441 142.213 12.2441C142.695 12.2441 143.079 12.3809 143.365 12.6543C143.652 12.9277 143.795 13.276 143.795 13.6992C143.795 14.1289 143.648 14.4805 143.355 14.7539C143.069 15.0273 142.688 15.1641 142.213 15.1641C141.738 15.1641 141.354 15.0273 141.061 14.7539C140.774 14.4805 140.631 14.1289 140.631 13.6992ZM157.809 20.2129C157.809 21.541 157.594 22.6966 157.164 23.6797C156.734 24.6562 156.139 25.4408 155.377 26.0332L157.74 27.8887L155.875 29.5391L152.848 27.1074C152.503 27.166 152.145 27.1953 151.773 27.1953C150.595 27.1953 149.544 26.9121 148.619 26.3457C147.695 25.7793 146.979 24.972 146.471 23.9238C145.963 22.8691 145.706 21.6582 145.699 20.291V19.5879C145.699 18.1882 145.95 16.9577 146.451 15.8965C146.959 14.8288 147.672 14.0117 148.59 13.4453C149.514 12.8724 150.569 12.5859 151.754 12.5859C152.939 12.5859 153.99 12.8724 154.908 13.4453C155.833 14.0117 156.546 14.8288 157.047 15.8965C157.555 16.9577 157.809 18.1849 157.809 19.5781V20.2129ZM154.84 19.5684C154.84 18.0775 154.573 16.9447 154.039 16.1699C153.505 15.3952 152.743 15.0078 151.754 15.0078C150.771 15.0078 150.012 15.3919 149.479 16.1602C148.945 16.9219 148.674 18.0417 148.668 19.5195V20.2129C148.668 21.6647 148.935 22.791 149.469 23.5918C150.003 24.3926 150.771 24.793 151.773 24.793C152.757 24.793 153.512 24.4089 154.039 23.6406C154.566 22.8659 154.833 21.7396 154.84 20.2617V19.5684ZM165.641 28.2207H163.541L168.775 12.7812H170.875L165.641 28.2207ZM177.994 20.9355L172.32 18.9531V16.2383L180.826 19.8027V22.0977L172.32 25.6719V22.9473L177.994 20.9355Z" fill="#F2F2F2"/>
<path d="M33.3175 41C29.9454 41.0021 26.6002 40.5644 23.4419 39.7077C23.2612 39.6586 23.0956 39.5841 22.9546 39.4886C22.8136 39.3931 22.6999 39.2784 22.62 39.1511C22.5401 39.0237 22.4956 38.8862 22.489 38.7463C22.4824 38.6065 22.5139 38.4671 22.5816 38.3361C22.6493 38.2051 22.752 38.085 22.8837 37.9828C23.0154 37.8805 23.1736 37.7981 23.3492 37.7401C23.5249 37.6822 23.7145 37.6499 23.9074 37.6452C24.1002 37.6404 24.2925 37.6632 24.4732 37.7123C28.6604 38.8345 33.1789 39.1452 37.5824 38.6139C41.986 38.0825 46.1222 36.7274 49.5825 34.6825C38.7881 34.7657 28.2295 31.0667 22.9765 25.1312C19.5995 21.3156 18.4955 16.8258 19.7827 12.1469C20.7683 8.75403 22.7918 5.56482 25.7039 2.81454C20.1438 4.09736 15.3588 6.72424 12.1476 10.2567C8.93637 13.7891 7.49333 18.0133 8.0593 22.2242C8.07902 22.3637 8.06057 22.5046 8.00501 22.6389C7.94946 22.7733 7.8579 22.8983 7.73556 23.0069C7.61323 23.1155 7.46251 23.2055 7.29209 23.2718C7.12168 23.3381 6.9349 23.3793 6.74246 23.3931C6.55002 23.407 6.35573 23.3931 6.17068 23.3524C5.98564 23.3117 5.81349 23.2448 5.66413 23.1558C5.51477 23.0667 5.39114 22.9571 5.3003 22.8333C5.20947 22.7095 5.15323 22.574 5.1348 22.4344C4.42098 17.1365 6.56095 11.8438 11.1068 7.66414C15.6526 3.48444 22.2519 0.741755 29.5234 0.0101758C29.8274 -0.0205129 30.137 0.0186188 30.4088 0.122069C30.6806 0.22552 30.9009 0.388095 31.0387 0.586969C31.1765 0.785844 31.225 1.01103 31.1773 1.2309C31.1296 1.45077 30.9881 1.65429 30.7727 1.81287C23.2572 7.34825 18.6964 16.3493 25.4494 23.9804C30.7775 30.0001 42.2416 33.4432 53.3336 32.355C53.6312 32.3258 53.9339 32.3634 54.2011 32.4627C54.4683 32.5621 54.6871 32.7184 54.828 32.9107C54.969 33.1029 55.0253 33.3218 54.9895 33.538C54.9536 33.7542 54.8273 33.9572 54.6275 34.1197C51.9417 36.288 48.6557 38.0214 44.9839 39.2069C41.3121 40.3924 37.3368 41.0034 33.3175 41Z" fill="#6C63FF"/>
<path d="M10.5 41C8.4233 41 6.39323 40.5308 4.66652 39.6518C2.9398 38.7727 1.594 37.5233 0.799279 36.0615C0.00455897 34.5997 -0.203389 32.9911 0.201756 31.4393C0.606901 29.8874 1.60693 28.462 3.07538 27.3432C4.54384 26.2243 6.41475 25.4624 8.45155 25.1537C10.4883 24.845 12.5996 25.0035 14.5182 25.609C16.4368 26.2145 18.0767 27.2399 19.2304 28.5554C20.3842 29.871 21 31.4178 21 33C20.9969 35.121 19.8896 37.1544 17.9211 38.6542C15.9527 40.154 13.2838 40.9976 10.5 41ZM10.5 27.1818C8.98967 27.1818 7.51327 27.5231 6.25747 28.1624C5.00168 28.8017 4.02291 29.7103 3.44493 30.7735C2.86695 31.8366 2.71571 33.0065 3.01037 34.1351C3.30502 35.2637 4.0323 36.3004 5.10027 37.1141C6.16823 37.9278 7.5289 38.4819 9.01021 38.7064C10.4915 38.9309 12.0269 38.8157 13.4223 38.3753C14.8177 37.9349 16.0103 37.1892 16.8494 36.2324C17.6885 35.2756 18.1364 34.1507 18.1364 33C18.134 31.4575 17.3288 29.9786 15.8972 28.8879C14.4656 27.7971 12.5246 27.1836 10.5 27.1818Z" fill="#6C63FF"/>
</svg>
